Coordinates
version=1
nRows=17
nColumns=38
inDegrees=no

Units are S.I. units (second, meters, Newtons, ...)
If the header above contains a line with 'inDegrees', this indicates whether rotational values are in degrees (yes) or radians (no).

endheader
time	pelvis_tilt	pelvis_list	pelvis_rotation	pelvis_tx	pelvis_ty	pelvis_tz	hip_flexion_r	hip_adduction_r	hip_rotation_r	knee_angle_r	ankle_angle_r	subtalar_angle_r	mtp_angle_r	hip_flexion_l	hip_adduction_l	hip_rotation_l	knee_angle_l	ankle_angle_l	subtalar_angle_l	mtp_angle_l	lumbar_extension	lumbar_bending	lumbar_rotation	arm_flex_r	arm_add_r	arm_rot_r	elbow_flex_r	pro_sup_r	wrist_flex_r	wrist_dev_r	arm_flex_l	arm_add_l	arm_rot_l	elbow_flex_l	pro_sup_l	wrist_flex_l	wrist_dev_l
4.79	0.23283	1.39459	1.2303	0.59897	1.79724	1.03774	0.430581	0.0007075	-0.0424797	0.52734	-0.25656	0	0	0.259381	-0.0823953	-0.27404	0.220609	-0.463868	0	0	-0.0671267	0.112793	-0.0886431	1.08891	-0.0563413	1.21344	0.835845	1.5708	0	0	0.549986	-0.475681	0.399123	1.23013	1.5708	0	0
4.8	0.20827	1.39686	1.25884	0.600111	1.79942	1.03726	0.424682	-0.0045317	-0.0464986	0.522652	-0.257374	0	0	0.257913	-0.0778315	-0.271933	0.224077	-0.460793	0	0	-0.0661814	0.109772	-0.0882186	1.08981	-0.0576909	1.21502	0.835056	1.5708	0	0	0.555676	-0.473941	0.404783	1.22281	1.5708	0	0
4.81	0.182603	1.39957	1.28876	0.601248	1.80164	1.03685	0.418436	-0.0104584	-0.0531026	0.517661	-0.25678	0	0	0.255671	-0.0727814	-0.26993	0.226819	-0.457755	0	0	-0.0658857	0.106472	-0.0875472	1.09058	-0.0601606	1.21629	0.835811	1.5708	0	0	0.561698	-0.47202	0.411155	1.21546	1.5708	0	0
4.82	0.155562	1.4021	1.32008	0.602375	1.80378	1.03647	0.412022	-0.01571	-0.0584356	0.511062	-0.255553	0	0	0.253533	-0.0673991	-0.267748	0.22919	-0.455279	0	0	-0.0655757	0.103142	-0.086873	1.09113	-0.0625965	1.21718	0.836664	1.5708	0	0	0.567476	-0.469959	0.417387	1.2082	1.5708	0	0
4.83	0.132193	1.40437	1.34782	0.603521	1.80585	1.03623	0.406783	-0.0197743	-0.0645453	0.506714	-0.253131	0	0	0.251444	-0.0626997	-0.265051	0.23146	-0.453007	0	0	-0.0655701	0.100873	-0.086016	1.09157	-0.0652282	1.21791	0.837764	1.5708	0	0	0.573395	-0.467729	0.423883	1.2007	1.5708	0	0
4.84	0.114972	1.40613	1.36922	0.604702	1.80782	1.03618	0.403211	-0.022596	-0.0717553	0.50568	-0.249981	0	0	0.24955	-0.059382	-0.261966	0.233769	-0.451036	0	0	-0.0658618	0.100204	-0.0847809	1.09191	-0.0682499	1.21851	0.839503	1.5708	0	0	0.579021	-0.46518	0.429966	1.19329	1.5708	0	0
4.85	0.106309	1.40745	1.38183	0.605863	1.80973	1.03636	0.400205	-0.0240636	-0.078467	0.506163	-0.246981	0	0	0.247802	-0.0576628	-0.259229	0.236105	-0.44932	0	0	-0.0665528	0.101519	-0.0833839	1.09227	-0.0716151	1.21935	0.841843	1.5708	0	0	0.583797	-0.462156	0.435068	1.18627	1.5708	0	0
4.86	0.105371	1.40857	1.38618	0.607	1.81161	1.03675	0.39742	-0.0244626	-0.0833367	0.507654	-0.24477	0	0	0.245597	-0.0574315	-0.257095	0.237746	-0.448027	0	0	-0.0676531	0.104665	-0.0817736	1.09263	-0.074918	1.22066	0.844399	1.5708	0	0	0.587255	-0.458553	0.438914	1.17984	1.5708	0	0
4.87	0.107917	1.40949	1.38604	0.608168	1.81349	1.03725	0.395498	-0.0242763	-0.0854759	0.511261	-0.243466	0	0	0.242648	-0.0579483	-0.256319	0.237669	-0.447383	0	0	-0.0687561	0.108764	-0.0797489	1.09291	-0.0777725	1.22243	0.84682	1.5708	0	0	0.589347	-0.454896	0.441324	1.17399	1.5708	0	0
4.88	0.109703	1.41029	1.38594	0.609328	1.81544	1.03773	0.393302	-0.0237944	-0.0842008	0.514381	-0.242646	0	0	0.23888	-0.0583426	-0.256545	0.235647	-0.447417	0	0	-0.069408	0.112962	-0.0777428	1.09299	-0.0799523	1.22461	0.84875	1.5708	0	0	0.590322	-0.451618	0.442728	1.16858	1.5708	0	0
4.89	0.108722	1.41128	1.38813	0.610432	1.81747	1.0382	0.389687	-0.0232126	-0.0801653	0.514606	-0.241772	0	0	0.233787	-0.0581184	-0.256732	0.231297	-0.448452	0	0	-0.0697834	0.116779	-0.0759123	1.09308	-0.0813822	1.22746	0.849962	1.5708	0	0	0.59071	-0.448748	0.443862	1.16325	1.5708	0	0
4.9	0.103976	1.41244	1.39384	0.61152	1.81957	1.03864	0.385396	-0.0231269	-0.0758411	0.513411	-0.240691	0	0	0.227417	-0.0570854	-0.256429	0.224516	-0.450492	0	0	-0.0696004	0.119894	-0.0746913	1.09297	-0.0814273	1.23107	0.849527	1.5708	0	0	0.590493	-0.446458	0.444918	1.15787	1.5708	0	0
4.91	0.0952651	1.41361	1.40357	0.612639	1.82174	1.03902	0.381666	-0.0240762	-0.0742183	0.513279	-0.239398	0	0	0.220505	-0.0553749	-0.255814	0.216649	-0.453041	0	0	-0.0686944	0.122007	-0.0742556	1.09247	-0.0803841	1.23494	0.847882	1.5708	0	0	0.589795	-0.444911	0.446178	1.15277	1.5708	0	0
4.92	0.0839899	1.41498	1.41617	0.613714	1.82401	1.03938	0.377835	-0.0260474	-0.0758743	0.513475	-0.237884	0	0	0.212766	-0.0529619	-0.254672	0.207643	-0.456041	0	0	-0.0674339	0.123342	-0.0745198	1.09136	-0.0789006	1.23854	0.845823	1.5708	0	0	0.588599	-0.444102	0.447944	1.14803	1.5708	0	0
4.93	0.0712269	1.41657	1.43074	0.614719	1.82637	1.03974	0.373589	-0.0288188	-0.0802047	0.51344	-0.236277	0	0	0.204234	-0.0499709	-0.252671	0.197625	-0.459624	0	0	-0.0658706	0.124193	-0.0755754	1.08959	-0.0771976	1.24186	0.843585	1.5708	0	0	0.586864	-0.44374	0.449891	1.14369	1.5708	0	0
4.94	0.0587904	1.41846	1.44565	0.615658	1.82883	1.04012	0.368384	-0.0317577	-0.0865433	0.512579	-0.234442	0	0	0.194804	-0.046763	-0.249812	0.186498	-0.463754	0	0	-0.0640701	0.124799	-0.0777795	1.08697	-0.0749557	1.24462	0.840898	1.5708	0	0	0.584365	-0.44408	0.451921	1.13978	1.5708	0	0
4.95	0.0472891	1.42059	1.46024	0.616552	1.83137	1.04052	0.3624	-0.0346053	-0.0940452	0.511181	-0.232383	0	0	0.184742	-0.0436406	-0.246439	0.174741	-0.468119	0	0	-0.0621903	0.125305	-0.0807599	1.08365	-0.0726689	1.24673	0.838408	1.5708	0	0	0.581302	-0.444925	0.454107	1.13626	1.5708	0	0
